<?xml version="1.0" encoding="UTF-8" standalone="no"?>
<svg width="29px" height="26px" viewBox="0 0 29 26" version="1.1" xmlns="http://www.w3.org/2000/svg" xmlns:xlink="http://www.w3.org/1999/xlink">
    <!-- Generator: Sketch 41.2 (35397) - http://www.bohemiancoding.com/sketch -->
    <title>cart_clean</title>
    <desc>Created with Sketch.</desc>
    <defs>
        <path d="M21.7542647,0.229666667 C23.8823529,0.307666667 26.0147059,0.355333333 28.1470588,0.325 L28.1470588,2.275 C26.6501471,2.27066667 25.1575,2.275 23.6605882,2.275 C23.8226471,8.593 23.8141176,14.9153333 23.6819118,21.229 C24.7566176,22.0393333 25.4219118,23.634 24.4452941,24.7996667 C23.4345588,26.1863333 21.4301471,25.6923333 20.5814706,24.3923333 C16.2442647,24.362 11.9027941,24.362 7.56558824,24.3923333 C6.88323529,25.1896667 5.89382353,25.961 4.78926471,25.5493333 C3.06632353,25.116 2.67397059,22.5203333 4.16235294,21.554 C5.31808824,20.6743333 6.79367647,21.3546667 7.56558824,22.4076667 C11.9070588,22.4466667 16.2442647,22.425 20.5857353,22.4206667 C20.9738235,22.048 21.3619118,21.671 21.7457353,21.294 C21.7414706,20.371 21.75,19.448 21.75,18.525 C16.1973529,18.5163333 10.6404412,18.538 5.08352941,18.5206667 C4.08985294,18.629 3.18573529,17.9096667 3.03220588,16.9086667 C2.14088235,13.5676667 1.21544118,10.2353333 0.366764706,6.88566667 C0.0980882353,6.25733333 0.520294118,5.45566667 1.24529412,5.55966667 C8.07735294,5.47733333 14.9136765,5.551 21.75,5.525 C21.75,3.76133333 21.75,1.99333333 21.7542647,0.229666667 Z M2.49058824,7.475 C8.90897059,7.47066667 15.3273529,7.475 21.75,7.475 L21.75,16.575 L4.93,16.575 C4.11117647,13.5416667 3.30514706,10.5083333 2.49058824,7.475 Z" id="path-1"></path>
        <path d="M2.13235294,4.76666667 C3.31026471,4.76666667 4.26470588,3.79686667 4.26470588,2.6 C4.26470588,1.40313333 3.31026471,0.433333333 2.13235294,0.433333333 C0.954441176,0.433333333 0,1.40313333 0,2.6 C0,3.79686667 0.954441176,4.76666667 2.13235294,4.76666667 Z" id="path-3"></path>
    </defs>
    <g id="Page-1" stroke="none" stroke-width="1" fill="none" fill-rule="evenodd">
        <g id="cart_clean">
            <g id="Group-3">
                <mask id="mask-2" fill="white">
                    <use xlink:href="#path-1"></use>
                </mask>
                <use id="Clip-2" fill="#FFFFFF" xlink:href="#path-1"></use>
                <polygon id="Fill-1" fill="#FFFFFF" mask="url(#mask-2)" points="0.255882353 25.74 28.1982353 25.74 28.1982353 0.156 0.255882353 0.156"></polygon>
            </g>
            <polygon id="Fill-4" fill="#FFFFFF" points="21.75 2.16666667 28.1470588 2.16666667 28.1470588 0 21.75 0"></polygon>
            <path d="M5.54411765,25.5666667 C6.72202941,25.5666667 7.67647059,24.5968667 7.67647059,23.4 C7.67647059,22.2031333 6.72202941,21.2333333 5.54411765,21.2333333 C4.36620588,21.2333333 3.41176471,22.2031333 3.41176471,23.4 C3.41176471,24.5968667 4.36620588,25.5666667 5.54411765,25.5666667 Z" id="Stroke-9" stroke="#FFFFFF" stroke-width="0.5"></path>
            <g id="Group-13" transform="translate(20.470588, 20.800000)">
                <mask id="mask-4" fill="white">
                    <use xlink:href="#path-3"></use>
                </mask>
                <use id="Clip-12" fill="#FFFFFF" xlink:href="#path-3"></use>
                <polygon id="Fill-11" fill="#FFFFFF" mask="url(#mask-4)" points="-0.0511764706 4.836 4.35 4.836 4.35 0.364 -0.0511764706 0.364"></polygon>
            </g>
            <path d="M22.6029412,25.5666667 C23.7808529,25.5666667 24.7352941,24.5968667 24.7352941,23.4 C24.7352941,22.2031333 23.7808529,21.2333333 22.6029412,21.2333333 C21.4250294,21.2333333 20.4705882,22.2031333 20.4705882,23.4 C20.4705882,24.5968667 21.4250294,25.5666667 22.6029412,25.5666667 Z" id="Stroke-14" stroke="#FFFFFF" stroke-width="0.5"></path>
        </g>
    </g>
</svg>